<svg xmlns="http://www.w3.org/2000/svg" width="32" height="32" id="user"><path fill="#e6e6e6" fill-rule="evenodd" d="M20.654 16.692C23.256 15.115 25 12.265 25 9c0-4.971-4.029-9-9-9S7 4.029 7 9c0 3.265 1.744 6.115 4.346 7.692C4.78 18.686 0 24.783 0 32h32c0-7.217-4.78-13.314-11.346-15.308zM8 9a8 8 0 0 1 16 0 7.998 7.998 0 0 1-4.786 7.323 8.024 8.024 0 0 1-1.514.492l-.036.009a8.05 8.05 0 0 1-.717.115c-.036.004-.07.012-.106.016a7.814 7.814 0 0 1-1.68 0c-.036-.004-.07-.012-.106-.016a8.05 8.05 0 0 1-.717-.115l-.036-.009A7.996 7.996 0 0 1 8 9zm4.719 8.374c1.018.399 2.122.626 3.281.626s2.263-.227 3.281-.626C25.664 18.803 30.506 24.295 30.95 31H1.05c.444-6.705 5.286-12.197 11.669-13.626z" clip-rule="evenodd"></path></svg>